<svg xmlns="http://www.w3.org/2000/svg" viewBox="0 0 512 512" role="img" aria-label="Rockaway Events">
  <rect width="512" height="512" rx="96" fill="#FBF6EC"/>
  <g transform="translate(256 256) scale(0.78) translate(-256 -256)">
  <circle cx="256" cy="196" r="76" fill="#E2572B"/>
  <g fill="none" stroke="#1F6F8B" stroke-width="34" stroke-linecap="round">
    <path d="M52 336c34 0 34-34 68-34s34 34 68 34 34-34 68-34 34 34 68 34 34-34 68-34 34 34 68 34"/>
    <path d="M52 424c34 0 34-34 68-34s34 34 68 34 34-34 68-34 34 34 68 34 34-34 68-34 34 34 68 34" opacity=".45"/>
  </g>
  </g>
</svg>
